<svg width="29" height="27" viewBox="0 0 29 27" fill="none" xmlns="http://www.w3.org/2000/svg">
<path d="M25.6359 5.29742C25.2904 5.23342 25.0622 4.90137 25.1262 4.5559L25.623 1.87407C25.687 1.5286 26.019 1.30034 26.3645 1.36434C26.71 1.42834 26.9382 1.7604 26.8742 2.10587L26.3774 4.78769C26.3134 5.13329 25.9814 5.36142 25.6359 5.29742Z" fill="#FCBC1D"/>
<path d="M27.2251 4.20497L24.5432 3.70813C24.1977 3.64413 23.9694 3.31207 24.0334 2.9666C24.0974 2.62113 24.4295 2.39287 24.775 2.45687L27.4569 2.95371C27.8024 3.01771 28.0307 3.34976 27.9667 3.69524C27.9027 4.04071 27.5707 4.26899 27.2251 4.20497Z" fill="#FCBC1D"/>
<path d="M19.4953 15.2661C19.1554 15.1774 18.9516 14.8298 19.0403 14.4898L19.7288 11.8507C19.8174 11.5107 20.1651 11.307 20.505 11.3957C20.845 11.4843 21.0488 11.832 20.9601 12.1719L20.2716 14.8111C20.1829 15.1512 19.8353 15.3548 19.4953 15.2661Z" fill="#FCBC1D"/>
<path d="M21.1591 14.2908L18.5198 13.6023C18.1798 13.5136 17.9761 13.166 18.0648 12.826C18.1534 12.4861 18.5011 12.2823 18.841 12.371L21.4803 13.0595C21.8203 13.1482 22.024 13.4958 21.9353 13.8358C21.8467 14.1758 21.4992 14.3796 21.1591 14.2908Z" fill="#FCBC1D"/>
<path d="M6.57629 21.246C6.23983 21.3473 5.88491 21.1565 5.78371 20.82L4.99806 18.2082C4.89685 17.8717 5.08763 17.5168 5.42408 17.4156C5.76054 17.3144 6.11546 17.5052 6.21667 17.8416L7.00232 20.4535C7.10356 20.79 6.91275 21.1448 6.57629 21.246Z" fill="#FCBC1D"/>
<path d="M7.48935 19.5474L4.87738 20.3331C4.54092 20.4343 4.186 20.2435 4.08479 19.907C3.98358 19.5706 4.17436 19.2157 4.51082 19.1144L7.12279 18.3288C7.45925 18.2276 7.81417 18.4183 7.91538 18.7548C8.01658 19.0913 7.82593 19.4461 7.48935 19.5474Z" fill="#FCBC1D"/>
<path d="M3.0737 6.88853C2.56984 6.72217 2.29616 6.17867 2.46251 5.67482L3.75392 1.76353C3.92027 1.25968 4.46377 0.985988 4.96763 1.15235C5.47148 1.3187 5.74517 1.8622 5.57881 2.36606L4.28741 6.27735C4.12099 6.78138 3.57755 7.05489 3.0737 6.88853Z" fill="#FCBC1D"/>
<path d="M5.67492 5.57864L1.76345 4.28718C1.25959 4.12082 0.985905 3.57732 1.15226 3.07347C1.31862 2.56962 1.86212 2.29593 2.36597 2.46229L6.27745 3.75375C6.7813 3.92011 7.05499 4.46361 6.88863 4.96746C6.72228 5.47132 6.17896 5.74506 5.67492 5.57864Z" fill="#FCBC1D"/>
<path d="M23.4666 26.3204C22.945 26.2231 22.6009 25.7211 22.6983 25.1995L23.4539 21.1505C23.5512 20.6289 24.0531 20.2848 24.5747 20.3821C25.0963 20.4795 25.4404 20.9814 25.3431 21.503L24.5875 25.5521C24.4901 26.0739 23.9882 26.4177 23.4666 26.3204Z" fill="#FCBC1D"/>
<path d="M25.8688 24.6737L21.8196 23.9181C21.298 23.8208 20.9539 23.3189 21.0512 22.7972C21.1486 22.2756 21.6505 21.9316 22.1721 22.0289L26.2214 22.7846C26.743 22.8819 27.087 23.3838 26.9897 23.9054C26.8923 24.427 26.3906 24.7711 25.8688 24.6737Z" fill="#FCBC1D"/>
</svg>
