<svg width="220" height="220" viewBox="0 0 220 220" fill="none" xmlns="http://www.w3.org/2000/svg">
<path d="M103.553 95.8213C102.57 95.8213 101.665 95.1747 101.38 94.1821C101.037 92.9815 101.731 91.7298 102.932 91.3861L187.171 67.269C188.37 66.9244 189.623 67.6194 189.967 68.8205C190.311 70.0211 189.616 71.2728 188.416 71.6165L104.176 95.7336C103.969 95.7933 103.759 95.8213 103.553 95.8213Z" fill="#333333"/>
<path d="M135.363 148.082C134.772 148.082 134.182 147.852 133.738 147.394L95.6305 108.015C94.7623 107.118 94.7854 105.686 95.683 104.818C96.5802 103.95 98.0119 103.973 98.8801 104.87L136.988 144.249C137.856 145.146 137.833 146.578 136.936 147.446C136.496 147.871 135.929 148.082 135.363 148.082Z" fill="#333333"/>
<path d="M157.268 152.492C156.259 152.492 155.34 151.812 155.079 150.79C154.77 149.58 155.5 148.349 156.71 148.04L195.323 138.187C196.533 137.878 197.764 138.609 198.073 139.818C198.381 141.028 197.651 142.259 196.441 142.568L157.828 152.421C157.641 152.47 157.453 152.492 157.268 152.492Z" fill="#333333"/>
<path d="M207.096 124.547C205.956 124.547 204.976 123.687 204.851 122.528L200.506 82.1439C200.373 80.9026 201.271 79.7879 202.512 79.654C203.755 79.5197 204.868 80.4187 205.002 81.6605L209.347 122.044C209.48 123.286 208.582 124.4 207.341 124.534C207.258 124.543 207.177 124.547 207.096 124.547Z" fill="#333333"/>
<path d="M18.3367 120.906C17.7936 120.906 17.2487 120.712 16.8155 120.317C15.8921 119.477 15.8251 118.047 16.6653 117.123L33.0596 99.1125C33.9007 98.1891 35.3302 98.1222 36.2536 98.9624C37.177 99.803 37.2439 101.233 36.4037 102.156L20.0094 120.167C19.5635 120.657 18.9512 120.906 18.3367 120.906Z" fill="#333333"/>
<path d="M75.0934 98.4247C75.0062 98.4247 74.918 98.4197 74.8289 98.4093L56.4431 96.2672C55.2027 96.123 54.3141 95.0001 54.4588 93.7597C54.6031 92.5193 55.7268 91.6307 56.9663 91.7755L75.3521 93.9176C76.5925 94.0618 77.4811 95.1846 77.3364 96.425C77.2025 97.5759 76.2253 98.4247 75.0934 98.4247Z" fill="#333333"/>
<path d="M42.2813 102.515C41.0328 102.515 40.0203 101.502 40.0203 100.254V84.4266C40.0203 83.1781 41.0328 82.1656 42.2813 82.1656C43.5298 82.1656 44.5423 83.1781 44.5423 84.4266V100.254C44.5423 101.503 43.5298 102.515 42.2813 102.515Z" fill="#FCBC1D"/>
<path d="M50.195 94.6013H34.3677C33.1192 94.6013 32.1067 93.5888 32.1067 92.3403C32.1067 91.0917 33.1192 90.0792 34.3677 90.0792H50.195C51.4435 90.0792 52.456 91.0917 52.456 92.3403C52.456 93.5888 51.4435 94.6013 50.195 94.6013Z" fill="#FCBC1D"/>
<path d="M10.1746 137.787C8.92607 137.787 7.91357 136.775 7.91357 135.526V119.699C7.91357 118.45 8.92607 117.438 10.1746 117.438C11.4232 117.438 12.4356 118.45 12.4356 119.699V135.526C12.4356 136.775 11.4232 137.787 10.1746 137.787Z" fill="#FCBC1D"/>
<path d="M18.0883 129.873H2.26103C1.01249 129.873 0 128.861 0 127.612C0 126.364 1.01249 125.351 2.26103 125.351H18.0883C19.3368 125.351 20.3493 126.364 20.3493 127.612C20.3493 128.861 19.3368 129.873 18.0883 129.873Z" fill="#FCBC1D"/>
<path d="M89.9905 108.191C88.742 108.191 87.7295 107.178 87.7295 105.93V90.1027C87.7295 88.8542 88.742 87.8417 89.9905 87.8417C91.2391 87.8417 92.2516 88.8542 92.2516 90.1027V105.93C92.2516 107.178 91.2395 108.191 89.9905 108.191Z" fill="#FCBC1D"/>
<path d="M97.9042 100.277H82.077C80.8284 100.277 79.8159 99.2649 79.8159 98.0163C79.8159 96.7678 80.8284 95.7553 82.077 95.7553H97.9042C99.1527 95.7553 100.165 96.7678 100.165 98.0163C100.165 99.2649 99.1532 100.277 97.9042 100.277Z" fill="#FCBC1D"/>
<path d="M202.138 76.0843C200.889 76.0843 199.877 75.0718 199.877 73.8233V57.996C199.877 56.7475 200.889 55.735 202.138 55.735C203.386 55.735 204.399 56.7475 204.399 57.996V73.8233C204.399 75.0718 203.387 76.0843 202.138 76.0843Z" fill="#FCBC1D"/>
<path d="M210.051 68.1707H194.224C192.976 68.1707 191.963 67.1582 191.963 65.9097C191.963 64.6611 192.976 63.6486 194.224 63.6486H210.051C211.3 63.6486 212.312 64.6611 212.312 65.9097C212.312 67.1582 211.3 68.1707 210.051 68.1707Z" fill="#FCBC1D"/>
<path d="M144.255 164.265C143.007 164.265 141.994 163.252 141.994 162.004V146.176C141.994 144.928 143.007 143.915 144.255 143.915C145.504 143.915 146.516 144.928 146.516 146.176V162.004C146.516 163.252 145.504 164.265 144.255 164.265Z" fill="#FCBC1D"/>
<path d="M152.169 156.351H136.342C135.093 156.351 134.081 155.339 134.081 154.09C134.081 152.841 135.093 151.829 136.342 151.829H152.169C153.418 151.829 154.43 152.841 154.43 154.09C154.43 155.339 153.418 156.351 152.169 156.351Z" fill="#FCBC1D"/>
<path d="M209.825 147.533C208.577 147.533 207.564 146.521 207.564 145.272V129.445C207.564 128.196 208.577 127.184 209.825 127.184C211.074 127.184 212.086 128.196 212.086 129.445V145.272C212.086 146.521 211.074 147.533 209.825 147.533Z" fill="#FCBC1D"/>
<path d="M217.739 139.619H201.912C200.663 139.619 199.651 138.607 199.651 137.358C199.651 136.11 200.663 135.097 201.912 135.097H217.739C218.987 135.097 220 136.11 220 137.358C220 138.607 218.988 139.619 217.739 139.619Z" fill="#FCBC1D"/>
</svg>
